<?xml version="1.0" standalone="no"?><!DOCTYPE svg PUBLIC "-//W3C//DTD SVG 1.1//EN" "http://www.w3.org/Graphics/SVG/1.1/DTD/svg11.dtd"><svg t="1743651981546" class="icon" viewBox="0 0 1024 1024" version="1.1" xmlns="http://www.w3.org/2000/svg" p-id="2778" xmlns:xlink="http://www.w3.org/1999/xlink" width="24" height="24"><path d="M960.1 276.4l-7.9-18.2c-1.7-4-6.4-5.8-10.4-4.1l-111.1 48.4c-0.8 0.3-1.5 0.8-2.1 1.4-2 0.9-3.8 2.3-5.1 4.3L509.1 822.3c-3.4 5.3-1.8 12.3 3.4 15.6l10.9 7c5.3 3.4 12.3 1.8 15.6-3.4L849.9 333 956 286.8c4-1.8 5.9-6.4 4.1-10.4z" fill="#EDAE34" p-id="2779"></path><path d="M529.6 854.2c-3.5 0-7-1-10.1-3l-10.9-7c-4.2-2.7-7.2-6.9-8.2-11.8-1.1-4.9-0.2-9.9 2.5-14.1l314.3-514 0.1-0.1c1.8-2.9 4.4-5.2 7.4-6.7 1-0.7 2-1.3 3.1-1.8l111.1-48.4c3.8-1.6 8-1.7 11.8-0.2 3.8 1.5 6.8 4.4 8.5 8.2l7.9 18.2c3.4 7.8-0.2 16.9-8 20.3l-104 45.3-309.6 506.3-0.1 0.1c-3.5 5.6-9.6 8.7-15.8 8.7z m300.2-542l-314.3 514-0.1 0.1c-0.6 0.9-0.7 1.9-0.5 2.9 0.1 0.6 0.5 1.7 1.7 2.4l10.9 7c1.8 1.1 4.1 0.6 5.2-1.1l310.7-508.4c0.8-1.3 2-2.3 3.4-3L953 279.9c0.2-0.1 0.3-0.3 0.2-0.5l-7.9-18.2s-0.1-0.2-0.2-0.2c-0.2-0.1-0.3 0-0.3 0l-111.1 48.4s-0.1 0-0.1 0.1c-0.6 0.6-1.3 1-2.1 1.3-0.5 0.2-1.1 0.6-1.7 1.4z" fill="#040000" p-id="2780"></path><path d="M572.2 726.8c0 120.7-82.6 182.1-191.9 182.1s-191.9-61.4-191.9-182.1" fill="#E1740D" p-id="2781"></path><path d="M509 726.8c0 109.2-67.7 169.9-161.6 180.4 9.8 1.1 20 1.7 30.3 1.7 109.3 0 191.9-61.4 191.9-182.1H509z" fill="#B74D20" p-id="2782"></path><path d="M380.3 916.4c-57.7 0-106.8-16.5-141.9-47.7-37.6-33.4-57.5-82.4-57.5-141.9 0-4.1 3.4-7.5 7.5-7.5s7.5 3.4 7.5 7.5c0 55.1 18.1 100.2 52.4 130.7 32.4 28.7 78 43.9 132 43.9s99.6-15.2 132-43.9c34.3-30.4 52.4-75.6 52.4-130.7 0-4.1 3.4-7.5 7.5-7.5s7.5 3.4 7.5 7.5c0 59.5-19.9 108.5-57.5 141.9-35.1 31.2-84.2 47.7-141.9 47.7z" fill="#040000" p-id="2783"></path><path d="M572.6 731c0 54.8-86.1 77.4-192.3 77.4S188 785.8 188 731c0-54.8 86.1-99.3 192.3-99.3s192.3 44.5 192.3 99.3z" fill="#E1740D" p-id="2784"></path><path d="M398.5 822.5c-106.2 0-192.3-44.4-192.3-99.3 0-28.6 23.5-54.4 61-72.5-48 18-79.2 47.3-79.2 80.3 0 54.8 86.1 99.3 192.3 99.3 50.7 0 96.9-10.2 131.3-26.7-31.8 11.8-70.9 18.9-113.1 18.9z" fill="#B74D20" p-id="2785"></path><path d="M383.7 680.4h-0.8c-6.3-0.5-12.8-0.8-19.3-0.9-5.5-0.1-9.9-4.6-9.9-10.1 0.1-5.5 4.5-9.9 10-9.9h0.1c7 0.1 13.9 0.4 20.6 1 5.5 0.5 9.6 5.3 9.2 10.8-0.4 5.1-4.8 9.1-9.9 9.1zM497 745.5c-4.7 0-8.8-3.3-9.8-8-4.8-23.7-30.5-42.7-70.5-52-5.4-1.3-8.7-6.6-7.5-12 1.3-5.4 6.6-8.7 12-7.5 47.9 11.2 79 35.8 85.5 67.5 1.1 5.4-2.4 10.7-7.8 11.8-0.6 0.2-1.3 0.2-1.9 0.2z" fill="#FFFFFF" p-id="2786"></path><path d="M380.3 837.7c-52.5 0-102-10.6-139.4-29.9-38.9-20.1-60.4-47.4-60.4-76.9s21.4-56.8 60.4-76.9c37.4-19.3 86.9-29.9 139.4-29.9s102 10.6 139.4 29.9c38.9 20.1 60.4 47.4 60.4 76.9s-21.4 56.8-60.4 76.9c-37.3 19.3-86.8 29.9-139.4 29.9z m0-198.5c-50.2 0-97.3 10-132.5 28.2-33.7 17.4-52.3 40-52.3 63.5s18.6 46.1 52.3 63.5c35.3 18.2 82.3 28.2 132.5 28.2s97.3-10 132.5-28.2c33.7-17.4 52.3-40 52.3-63.5s-18.6-46.1-52.3-63.5c-35.2-18.2-82.3-28.2-132.5-28.2z" fill="#040000" p-id="2787"></path></svg>